<?xml version="1.0" encoding="UTF-8" standalone="no"?>
<!-- Created with Inkscape (http://www.inkscape.org/) -->

<svg
   width="92.005539mm"
   height="58.922489mm"
   viewBox="0 0 92.005539 58.922489"
   version="1.1"
   id="svg1"
   inkscape:version="1.4.2 (ebf0e940, 2025-05-08)"
   sodipodi:docname="rings.svg"
   xmlns:inkscape="http://www.inkscape.org/namespaces/inkscape"
   xmlns:sodipodi="http://sodipodi.sourceforge.net/DTD/sodipodi-0.dtd"
   xmlns="http://www.w3.org/2000/svg"
   xmlns:svg="http://www.w3.org/2000/svg">
  <sodipodi:namedview
     id="namedview1"
     pagecolor="#ffffff"
     bordercolor="#999999"
     borderopacity="1"
     inkscape:showpageshadow="2"
     inkscape:pageopacity="0"
     inkscape:pagecheckerboard="true"
     inkscape:deskcolor="#d1d1d1"
     inkscape:document-units="mm"
     inkscape:zoom="0.56309183"
     inkscape:cx="224.65252"
     inkscape:cy="164.27161"
     inkscape:window-width="1512"
     inkscape:window-height="916"
     inkscape:window-x="0"
     inkscape:window-y="38"
     inkscape:window-maximized="1"
     inkscape:current-layer="layer1" />
  <defs
     id="defs1" />
  <g
     inkscape:label="Layer 1"
     inkscape:groupmode="layer"
     id="layer1"
     transform="translate(-48.523664,-86.548491)">
    <path
       id="path3"
       style="fill:none;stroke:#ffffff;stroke-width:6;stroke-linecap:round;stroke-dasharray:none;stroke-opacity:1"
       d="m 100.05107,102.69994 c 2.21315,3.9032 3.3765,8.31352 3.3765,12.8005 v 0 c 0,14.33287 -11.619087,25.95195 -25.951954,25.95195 -14.332867,0 -25.951951,-11.61908 -25.951952,-25.95195 2e-6,-14.33287 11.619086,-25.951949 25.951952,-25.951949 4.067347,0 8.077752,0.956011 11.70769,2.790911"
       sodipodi:nodetypes="csssssc" />
    <path
       id="path3-7"
       style="fill:none;stroke:#ffffff;stroke-width:6;stroke-linecap:round;stroke-dasharray:none;stroke-opacity:1"
       d="m 88.934659,129.20039 c -2.169906,-3.87437 -3.309362,-8.24072 -3.309363,-12.68136 -1e-6,-14.33287 11.619085,-25.951955 25.951954,-25.951954 14.33287,10e-7 25.95195,11.619084 25.95195,25.951954 v 0 c 0,14.33287 -11.61908,25.95195 -25.95195,25.95195 -3.61437,0 -7.7385,-0.20537 -11.37393,-2.43642"
       sodipodi:nodetypes="csssssc" />
  </g>
</svg>
